<?xml version="1.0" encoding="UTF-8" standalone="no"?>
<!DOCTYPE svg PUBLIC "-//W3C//DTD SVG 1.1//EN"
 "http://www.w3.org/Graphics/SVG/1.1/DTD/svg11.dtd">
<!-- Generated by graphviz version 2.38.0 (20140413.2041)
 -->
<!-- Title: Database Structure Pages: 1 -->
<svg width="329pt" height="256pt"
 viewBox="0.00 0.00 329.00 256.43" xmlns="http://www.w3.org/2000/svg" xmlns:xlink="http://www.w3.org/1999/xlink">
<g id="graph0" class="graph" transform="scale(1 1) rotate(0) translate(4 252.43)">
<title>Database Structure</title>
<polygon fill="white" stroke="none" points="-4,4 -4,-252.43 325,-252.43 325,4 -4,4"/>
<text text-anchor="middle" x="160.5" y="-233.23" font-family="Helvetica,sans-Serif" font-size="14.00">ER Diagram: test</text>
<!-- department -->
<g id="node1" class="node"><title>department</title>
<polygon fill="#dddddd" stroke="none" points="226,-61.7977 226,-82.7977 313,-82.7977 313,-61.7977 226,-61.7977"/>
<polygon fill="none" stroke="black" points="226,-61.7977 226,-82.7977 313,-82.7977 313,-61.7977 226,-61.7977"/>
<text text-anchor="start" x="238" y="-68.5977" font-family="Times New Roman,serif" font-size="14.00">department</text>
<polygon fill="none" stroke="black" points="226,-40.7977 226,-61.7977 313,-61.7977 313,-40.7977 226,-40.7977"/>
<text text-anchor="start" x="254.5" y="-48.5977" font-family="Times New Roman,serif" font-size="14.00">id:</text>
<text text-anchor="start" x="268.5" y="-48.5977" font-family="Helvetica,sans-Serif" font-style="oblique" font-size="10.00">INT</text>
<polygon fill="none" stroke="black" points="226,-19.7977 226,-40.7977 313,-40.7977 313,-19.7977 226,-19.7977"/>
<text text-anchor="start" x="229" y="-27.5977" font-family="Times New Roman,serif" font-size="14.00">name:</text>
<text text-anchor="start" x="262" y="-27.5977" font-family="Helvetica,sans-Serif" font-style="oblique" font-size="10.00">VARCHAR</text>
</g>
<!-- user -->
<g id="node2" class="node"><title>user</title>
<polygon fill="#dddddd" stroke="none" points="8,-169.798 8,-190.798 120,-190.798 120,-169.798 8,-169.798"/>
<polygon fill="none" stroke="black" points="8,-169.798 8,-190.798 120,-190.798 120,-169.798 8,-169.798"/>
<text text-anchor="start" x="52" y="-176.598" font-family="Times New Roman,serif" font-size="14.00">user</text>
<polygon fill="none" stroke="black" points="8,-148.798 8,-169.798 120,-169.798 120,-148.798 8,-148.798"/>
<text text-anchor="start" x="49" y="-156.598" font-family="Times New Roman,serif" font-size="14.00">id:</text>
<text text-anchor="start" x="63" y="-156.598" font-family="Helvetica,sans-Serif" font-style="oblique" font-size="10.00">INT</text>
<polygon fill="none" stroke="black" points="8,-127.798 8,-148.798 120,-148.798 120,-127.798 8,-127.798"/>
<text text-anchor="start" x="12" y="-135.598" font-family="Times New Roman,serif" font-size="14.00">username:</text>
<text text-anchor="start" x="68" y="-135.598" font-family="Helvetica,sans-Serif" font-style="oblique" font-size="10.00">VARCHAR</text>
<polygon fill="none" stroke="black" points="8,-106.798 8,-127.798 120,-127.798 120,-106.798 8,-106.798"/>
<text text-anchor="start" x="11" y="-114.598" font-family="Times New Roman,serif" font-size="14.00">password:</text>
<text text-anchor="start" x="69" y="-114.598" font-family="Helvetica,sans-Serif" font-style="oblique" font-size="10.00">VARCHAR</text>
<polygon fill="none" stroke="black" points="8,-85.7977 8,-106.798 120,-106.798 120,-85.7977 8,-85.7977"/>
<text text-anchor="start" x="18.5" y="-93.5977" font-family="Times New Roman,serif" font-size="14.00">is_active:</text>
<text text-anchor="start" x="70.5" y="-93.5977" font-family="Helvetica,sans-Serif" font-style="oblique" font-size="10.00">TINYINT</text>
<polygon fill="none" stroke="black" points="8,-64.7977 8,-85.7977 120,-85.7977 120,-64.7977 8,-64.7977"/>
<text text-anchor="start" x="14" y="-72.5977" font-family="Times New Roman,serif" font-size="14.00">department_id:</text>
<text text-anchor="start" x="98" y="-72.5977" font-family="Helvetica,sans-Serif" font-style="oblique" font-size="10.00">INT</text>
</g>
<!-- user&#45;&gt;department -->
<g id="edge1" class="edge"><title>user:department_id&#45;&gt;department:id</title>
<path fill="none" stroke="#444444" stroke-dasharray="5,2" d="M121,-74.7977C164.731,-74.7977 175.903,-54.4012 214.547,-51.2143"/>
<polygon fill="#444444" stroke="#444444" points="215.147,-54.6932 225,-50.7977 214.869,-47.6988 215.147,-54.6932"/>
</g>
</g>
</svg>
