<?xml version="1.0" encoding="UTF-8" standalone="no"?>
<!DOCTYPE svg PUBLIC "-//W3C//DTD SVG 1.1//EN"
 "http://www.w3.org/Graphics/SVG/1.1/DTD/svg11.dtd">
<!-- Generated by graphviz version 2.38.0 (20140413.2041)
 -->
<!-- Title: Database Structure Pages: 1 -->
<svg width="769pt" height="565pt"
 viewBox="0.00 0.00 769.43 564.50" xmlns="http://www.w3.org/2000/svg" xmlns:xlink="http://www.w3.org/1999/xlink">
<g id="graph0" class="graph" transform="scale(1 1) rotate(0) translate(4 560.5)">
<title>Database Structure</title>
<polygon fill="white" stroke="none" points="-4,4 -4,-560.5 765.429,-560.5 765.429,4 -4,4"/>
<text text-anchor="middle" x="380.714" y="-541.3" font-family="Helvetica,sans-Serif" font-size="14.00">ER Diagram</text>
<!-- t_userdata -->
<g id="node1" class="node"><title>t_userdata</title>
<polygon fill="#dddddd" stroke="none" points="126.429,-109 126.429,-130 224.429,-130 224.429,-109 126.429,-109"/>
<polygon fill="none" stroke="black" points="126.429,-109 126.429,-130 224.429,-130 224.429,-109 126.429,-109"/>
<text text-anchor="start" x="136.929" y="-115.8" font-family="Times,serif" font-size="14.00">t_userdata</text>
<polygon fill="none" stroke="black" points="126.429,-88 126.429,-109 224.429,-109 224.429,-88 126.429,-88"/>
<text text-anchor="start" x="148.929" y="-95.8" font-family="Times,serif" font-size="14.00">id:</text>
<text text-anchor="start" x="167.929" y="-95.8" font-family="Helvetica,sans-Serif" font-style="oblique" font-size="10.00">integer</text>
<polygon fill="none" stroke="black" points="126.429,-67 126.429,-88 224.429,-88 224.429,-67 126.429,-67"/>
<text text-anchor="start" x="143.929" y="-74.8" font-family="Times,serif" font-size="14.00">name:</text>
<text text-anchor="start" x="187.929" y="-74.8" font-family="Helvetica,sans-Serif" font-style="oblique" font-size="10.00">text</text>
<polygon fill="none" stroke="black" points="126.429,-46 126.429,-67 224.429,-67 224.429,-46 126.429,-46"/>
<text text-anchor="start" x="141.429" y="-53.8" font-family="Times,serif" font-size="14.00">phone:</text>
<text text-anchor="start" x="190.429" y="-53.8" font-family="Helvetica,sans-Serif" font-style="oblique" font-size="10.00">text</text>
<polygon fill="none" stroke="black" points="126.429,-25 126.429,-46 224.429,-46 224.429,-25 126.429,-25"/>
<text text-anchor="start" x="143.929" y="-32.8" font-family="Times,serif" font-size="14.00">email:</text>
<text text-anchor="start" x="187.929" y="-32.8" font-family="Helvetica,sans-Serif" font-style="oblique" font-size="10.00">text</text>
<polygon fill="none" stroke="black" points="126.429,-4 126.429,-25 224.429,-25 224.429,-4 126.429,-4"/>
<text text-anchor="start" x="129.429" y="-11.8" font-family="Times,serif" font-size="14.00">password:</text>
<text text-anchor="start" x="202.429" y="-11.8" font-family="Helvetica,sans-Serif" font-style="oblique" font-size="10.00">text</text>
</g>
<!-- t_roledata -->
<g id="node2" class="node"><title>t_roledata</title>
<polygon fill="#dddddd" stroke="none" points="136.429,-198 136.429,-219 215.429,-219 215.429,-198 136.429,-198"/>
<polygon fill="none" stroke="black" points="136.429,-198 136.429,-219 215.429,-219 215.429,-198 136.429,-198"/>
<text text-anchor="start" x="139.429" y="-204.8" font-family="Times,serif" font-size="14.00">t_roledata</text>
<polygon fill="none" stroke="black" points="136.429,-177 136.429,-198 215.429,-198 215.429,-177 136.429,-177"/>
<text text-anchor="start" x="149.429" y="-184.8" font-family="Times,serif" font-size="14.00">id:</text>
<text text-anchor="start" x="168.429" y="-184.8" font-family="Helvetica,sans-Serif" font-style="oblique" font-size="10.00">integer</text>
<polygon fill="none" stroke="black" points="136.429,-156 136.429,-177 215.429,-177 215.429,-156 136.429,-156"/>
<text text-anchor="start" x="149.929" y="-163.8" font-family="Times,serif" font-size="14.00">role:</text>
<text text-anchor="start" x="182.929" y="-163.8" font-family="Helvetica,sans-Serif" font-style="oblique" font-size="10.00">text</text>
</g>
<!-- t_userroledata -->
<g id="node3" class="node"><title>t_userroledata</title>
<polygon fill="#dddddd" stroke="none" points="120.429,-419 120.429,-440 231.429,-440 231.429,-419 120.429,-419"/>
<polygon fill="none" stroke="black" points="120.429,-419 120.429,-440 231.429,-440 231.429,-419 120.429,-419"/>
<text text-anchor="start" x="123.429" y="-425.8" font-family="Times,serif" font-size="14.00">t_userroledata</text>
<polygon fill="none" stroke="black" points="120.429,-398 120.429,-419 231.429,-419 231.429,-398 120.429,-398"/>
<text text-anchor="start" x="149.429" y="-405.8" font-family="Times,serif" font-size="14.00">id:</text>
<text text-anchor="start" x="168.429" y="-405.8" font-family="Helvetica,sans-Serif" font-style="oblique" font-size="10.00">integer</text>
<polygon fill="none" stroke="black" points="120.429,-377 120.429,-398 231.429,-398 231.429,-377 120.429,-377"/>
<text text-anchor="start" x="129.929" y="-384.8" font-family="Times,serif" font-size="14.00">user_id:</text>
<text text-anchor="start" x="187.929" y="-384.8" font-family="Helvetica,sans-Serif" font-style="oblique" font-size="10.00">integer</text>
<polygon fill="none" stroke="black" points="120.429,-356 120.429,-377 231.429,-377 231.429,-356 120.429,-356"/>
<text text-anchor="start" x="131.929" y="-363.8" font-family="Times,serif" font-size="14.00">role_id:</text>
<text text-anchor="start" x="185.929" y="-363.8" font-family="Helvetica,sans-Serif" font-style="oblique" font-size="10.00">integer</text>
</g>
<!-- t_user -->
<g id="node6" class="node"><title>t_user</title>
<polygon fill="none" stroke="black" points="637.429,-369 637.429,-405 699.429,-405 699.429,-369 637.429,-369"/>
<text text-anchor="middle" x="668.429" y="-383.3" font-family="Times,serif" font-size="14.00">t_user</text>
</g>
<!-- t_userroledata&#45;&gt;t_user -->
<g id="edge1" class="edge"><title>t_userroledata:user_id&#45;&gt;t_user:id</title>
<path fill="none" stroke="#444444" stroke-dasharray="5,2" d="M232.429,-387C377.378,-387 549.434,-387 626.94,-387"/>
<polygon fill="#444444" stroke="#444444" points="627.236,-390.5 637.236,-387 627.236,-383.5 627.236,-390.5"/>
</g>
<!-- t_role -->
<g id="node7" class="node"><title>t_role</title>
<polygon fill="none" stroke="black" points="639.429,-304 639.429,-340 697.429,-340 697.429,-304 639.429,-304"/>
<text text-anchor="middle" x="668.429" y="-318.3" font-family="Times,serif" font-size="14.00">t_role</text>
</g>
<!-- t_userroledata&#45;&gt;t_role -->
<g id="edge2" class="edge"><title>t_userroledata:role_id&#45;&gt;t_role:id</title>
<path fill="none" stroke="#444444" stroke-dasharray="5,2" d="M232.429,-366C379.386,-366 552.804,-340.949 629.082,-328.651"/>
<polygon fill="#444444" stroke="#444444" points="629.881,-332.067 639.188,-327.005 628.755,-325.158 629.881,-332.067"/>
</g>
<!-- t_actiondata -->
<g id="node4" class="node"><title>t_actiondata</title>
<polygon fill="#dddddd" stroke="none" points="127.429,-508 127.429,-529 223.429,-529 223.429,-508 127.429,-508"/>
<polygon fill="none" stroke="black" points="127.429,-508 127.429,-529 223.429,-529 223.429,-508 127.429,-508"/>
<text text-anchor="start" x="130.429" y="-514.8" font-family="Times,serif" font-size="14.00">t_actiondata</text>
<polygon fill="none" stroke="black" points="127.429,-487 127.429,-508 223.429,-508 223.429,-487 127.429,-487"/>
<text text-anchor="start" x="148.929" y="-494.8" font-family="Times,serif" font-size="14.00">id:</text>
<text text-anchor="start" x="167.929" y="-494.8" font-family="Helvetica,sans-Serif" font-style="oblique" font-size="10.00">integer</text>
<polygon fill="none" stroke="black" points="127.429,-466 127.429,-487 223.429,-487 223.429,-466 127.429,-466"/>
<text text-anchor="start" x="141.429" y="-473.8" font-family="Times,serif" font-size="14.00">action:</text>
<text text-anchor="start" x="190.429" y="-473.8" font-family="Helvetica,sans-Serif" font-style="oblique" font-size="10.00">text</text>
</g>
<!-- t_roleactiondata -->
<g id="node5" class="node"><title>t_roleactiondata</title>
<polygon fill="#dddddd" stroke="none" points="113.429,-309 113.429,-330 237.429,-330 237.429,-309 113.429,-309"/>
<polygon fill="none" stroke="black" points="113.429,-309 113.429,-330 237.429,-330 237.429,-309 113.429,-309"/>
<text text-anchor="start" x="116.429" y="-315.8" font-family="Times,serif" font-size="14.00">t_roleactiondata</text>
<polygon fill="none" stroke="black" points="113.429,-288 113.429,-309 237.429,-309 237.429,-288 113.429,-288"/>
<text text-anchor="start" x="148.929" y="-295.8" font-family="Times,serif" font-size="14.00">id:</text>
<text text-anchor="start" x="167.929" y="-295.8" font-family="Helvetica,sans-Serif" font-style="oblique" font-size="10.00">integer</text>
<polygon fill="none" stroke="black" points="113.429,-267 113.429,-288 237.429,-288 237.429,-267 113.429,-267"/>
<text text-anchor="start" x="131.429" y="-274.8" font-family="Times,serif" font-size="14.00">role_id:</text>
<text text-anchor="start" x="185.429" y="-274.8" font-family="Helvetica,sans-Serif" font-style="oblique" font-size="10.00">integer</text>
<polygon fill="none" stroke="black" points="113.429,-246 113.429,-267 237.429,-267 237.429,-246 113.429,-246"/>
<text text-anchor="start" x="123.429" y="-253.8" font-family="Times,serif" font-size="14.00">action_id:</text>
<text text-anchor="start" x="193.429" y="-253.8" font-family="Helvetica,sans-Serif" font-style="oblique" font-size="10.00">integer</text>
</g>
<!-- t_roleactiondata&#45;&gt;t_role -->
<g id="edge3" class="edge"><title>t_roleactiondata:role_id&#45;&gt;t_role:id</title>
<path fill="none" stroke="#444444" stroke-dasharray="5,2" d="M238.429,-277C383.24,-277 554,-302.557 629.354,-315.151"/>
<polygon fill="#444444" stroke="#444444" points="628.898,-318.623 639.341,-316.838 630.064,-311.721 628.898,-318.623"/>
</g>
<!-- t_action -->
<g id="node8" class="node"><title>t_action</title>
<polygon fill="none" stroke="black" points="631.429,-238 631.429,-274 705.429,-274 705.429,-238 631.429,-238"/>
<text text-anchor="middle" x="668.429" y="-252.3" font-family="Times,serif" font-size="14.00">t_action</text>
</g>
<!-- t_roleactiondata&#45;&gt;t_action -->
<g id="edge4" class="edge"><title>t_roleactiondata:action_id&#45;&gt;t_action:id</title>
<path fill="none" stroke="#444444" stroke-dasharray="5,2" d="M238.429,-256C377.568,-256 542.032,-256 621.193,-256"/>
<polygon fill="#444444" stroke="#444444" points="621.33,-259.5 631.33,-256 621.33,-252.5 621.33,-259.5"/>
</g>
</g>
</svg>
