<?xml version="1.0" encoding="UTF-8" standalone="no"?>
<!DOCTYPE svg PUBLIC "-//W3C//DTD SVG 1.1//EN"
 "http://www.w3.org/Graphics/SVG/1.1/DTD/svg11.dtd">
<!-- Generated by graphviz version 2.38.0 (20140413.2041)
 -->
<!-- Title: Database Structure Pages: 1 -->
<svg width="454pt" height="344pt"
 viewBox="0.00 0.00 453.71 343.50" xmlns="http://www.w3.org/2000/svg" xmlns:xlink="http://www.w3.org/1999/xlink">
<g id="graph0" class="graph" transform="scale(1 1) rotate(0) translate(4 339.5)">
<title>Database Structure</title>
<polygon fill="white" stroke="none" points="-4,4 -4,-339.5 449.714,-339.5 449.714,4 -4,4"/>
<text text-anchor="middle" x="222.857" y="-320.3" font-family="Helvetica,sans-Serif" font-size="14.00">ER Diagram</text>
<!-- t_user -->
<g id="node1" class="node"><title>t_user</title>
<polygon fill="#dddddd" stroke="none" points="319.714,-287.5 319.714,-308.5 417.714,-308.5 417.714,-287.5 319.714,-287.5"/>
<polygon fill="none" stroke="black" points="319.714,-287.5 319.714,-308.5 417.714,-308.5 417.714,-287.5 319.714,-287.5"/>
<text text-anchor="start" x="345.714" y="-294.3" font-family="Times,serif" font-size="14.00">t_user</text>
<polygon fill="none" stroke="black" points="319.714,-266.5 319.714,-287.5 417.714,-287.5 417.714,-266.5 319.714,-266.5"/>
<text text-anchor="start" x="342.214" y="-274.3" font-family="Times,serif" font-size="14.00">id:</text>
<text text-anchor="start" x="361.214" y="-274.3" font-family="Helvetica,sans-Serif" font-style="oblique" font-size="10.00">integer</text>
<polygon fill="none" stroke="black" points="319.714,-245.5 319.714,-266.5 417.714,-266.5 417.714,-245.5 319.714,-245.5"/>
<text text-anchor="start" x="337.214" y="-253.3" font-family="Times,serif" font-size="14.00">name:</text>
<text text-anchor="start" x="381.214" y="-253.3" font-family="Helvetica,sans-Serif" font-style="oblique" font-size="10.00">text</text>
<polygon fill="none" stroke="black" points="319.714,-224.5 319.714,-245.5 417.714,-245.5 417.714,-224.5 319.714,-224.5"/>
<text text-anchor="start" x="334.714" y="-232.3" font-family="Times,serif" font-size="14.00">phone:</text>
<text text-anchor="start" x="383.714" y="-232.3" font-family="Helvetica,sans-Serif" font-style="oblique" font-size="10.00">text</text>
<polygon fill="none" stroke="black" points="319.714,-203.5 319.714,-224.5 417.714,-224.5 417.714,-203.5 319.714,-203.5"/>
<text text-anchor="start" x="337.214" y="-211.3" font-family="Times,serif" font-size="14.00">email:</text>
<text text-anchor="start" x="381.214" y="-211.3" font-family="Helvetica,sans-Serif" font-style="oblique" font-size="10.00">text</text>
<polygon fill="none" stroke="black" points="319.714,-182.5 319.714,-203.5 417.714,-203.5 417.714,-182.5 319.714,-182.5"/>
<text text-anchor="start" x="322.714" y="-190.3" font-family="Times,serif" font-size="14.00">password:</text>
<text text-anchor="start" x="395.714" y="-190.3" font-family="Helvetica,sans-Serif" font-style="oblique" font-size="10.00">text</text>
</g>
<!-- t_role -->
<g id="node2" class="node"><title>t_role</title>
<polygon fill="#dddddd" stroke="none" points="339.714,-134.5 339.714,-155.5 398.714,-155.5 398.714,-134.5 339.714,-134.5"/>
<polygon fill="none" stroke="black" points="339.714,-134.5 339.714,-155.5 398.714,-155.5 398.714,-134.5 339.714,-134.5"/>
<text text-anchor="start" x="348.214" y="-141.3" font-family="Times,serif" font-size="14.00">t_role</text>
<polygon fill="none" stroke="black" points="339.714,-113.5 339.714,-134.5 398.714,-134.5 398.714,-113.5 339.714,-113.5"/>
<text text-anchor="start" x="342.714" y="-121.3" font-family="Times,serif" font-size="14.00">id:</text>
<text text-anchor="start" x="361.714" y="-121.3" font-family="Helvetica,sans-Serif" font-style="oblique" font-size="10.00">integer</text>
<polygon fill="none" stroke="black" points="339.714,-92.5 339.714,-113.5 398.714,-113.5 398.714,-92.5 339.714,-92.5"/>
<text text-anchor="start" x="343.214" y="-100.3" font-family="Times,serif" font-size="14.00">role:</text>
<text text-anchor="start" x="376.214" y="-100.3" font-family="Helvetica,sans-Serif" font-style="oblique" font-size="10.00">text</text>
</g>
<!-- t_user_role -->
<g id="node3" class="node"><title>t_user_role</title>
<polygon fill="#dddddd" stroke="none" points="35.7143,-270.5 35.7143,-291.5 133.714,-291.5 133.714,-270.5 35.7143,-270.5"/>
<polygon fill="none" stroke="black" points="35.7143,-270.5 35.7143,-291.5 133.714,-291.5 133.714,-270.5 35.7143,-270.5"/>
<text text-anchor="start" x="44.2143" y="-277.3" font-family="Times,serif" font-size="14.00">t_user_role</text>
<polygon fill="none" stroke="black" points="35.7143,-249.5 35.7143,-270.5 133.714,-270.5 133.714,-249.5 35.7143,-249.5"/>
<text text-anchor="start" x="58.2143" y="-257.3" font-family="Times,serif" font-size="14.00">id:</text>
<text text-anchor="start" x="77.2143" y="-257.3" font-family="Helvetica,sans-Serif" font-style="oblique" font-size="10.00">integer</text>
<polygon fill="none" stroke="black" points="35.7143,-228.5 35.7143,-249.5 133.714,-249.5 133.714,-228.5 35.7143,-228.5"/>
<text text-anchor="start" x="38.7143" y="-236.3" font-family="Times,serif" font-size="14.00">user_id:</text>
<text text-anchor="start" x="96.7143" y="-236.3" font-family="Helvetica,sans-Serif" font-style="oblique" font-size="10.00">integer</text>
<polygon fill="none" stroke="black" points="35.7143,-207.5 35.7143,-228.5 133.714,-228.5 133.714,-207.5 35.7143,-207.5"/>
<text text-anchor="start" x="40.7143" y="-215.3" font-family="Times,serif" font-size="14.00">role_id:</text>
<text text-anchor="start" x="94.7143" y="-215.3" font-family="Helvetica,sans-Serif" font-style="oblique" font-size="10.00">integer</text>
</g>
<!-- t_user_role&#45;&gt;t_user -->
<g id="edge1" class="edge"><title>t_user_role:user_id&#45;&gt;t_user:id</title>
<path fill="none" stroke="#444444" stroke-dasharray="5,2" d="M134.714,-238.5C214.717,-238.5 233.552,-274.22 308.298,-277.29"/>
<polygon fill="#444444" stroke="#444444" points="308.646,-280.798 318.714,-277.5 308.787,-273.799 308.646,-280.798"/>
</g>
<!-- t_user_role&#45;&gt;t_role -->
<g id="edge2" class="edge"><title>t_user_role:role_id&#45;&gt;t_role:id</title>
<path fill="none" stroke="#444444" stroke-dasharray="5,2" d="M134.714,-217.5C231.034,-217.5 238.462,-129.993 328.531,-123.84"/>
<polygon fill="#444444" stroke="#444444" points="328.837,-127.332 338.714,-123.5 328.603,-120.336 328.837,-127.332"/>
</g>
<!-- t_action -->
<g id="node4" class="node"><title>t_action</title>
<polygon fill="#dddddd" stroke="none" points="331.714,-45.5 331.714,-66.5 405.714,-66.5 405.714,-45.5 331.714,-45.5"/>
<polygon fill="none" stroke="black" points="331.714,-45.5 331.714,-66.5 405.714,-66.5 405.714,-45.5 331.714,-45.5"/>
<text text-anchor="start" x="339.714" y="-52.3" font-family="Times,serif" font-size="14.00">t_action</text>
<polygon fill="none" stroke="black" points="331.714,-24.5 331.714,-45.5 405.714,-45.5 405.714,-24.5 331.714,-24.5"/>
<text text-anchor="start" x="342.214" y="-32.3" font-family="Times,serif" font-size="14.00">id:</text>
<text text-anchor="start" x="361.214" y="-32.3" font-family="Helvetica,sans-Serif" font-style="oblique" font-size="10.00">integer</text>
<polygon fill="none" stroke="black" points="331.714,-3.5 331.714,-24.5 405.714,-24.5 405.714,-3.5 331.714,-3.5"/>
<text text-anchor="start" x="334.714" y="-11.3" font-family="Times,serif" font-size="14.00">action:</text>
<text text-anchor="start" x="383.714" y="-11.3" font-family="Helvetica,sans-Serif" font-style="oblique" font-size="10.00">text</text>
</g>
<!-- t_role_action -->
<g id="node5" class="node"><title>t_role_action</title>
<polygon fill="#dddddd" stroke="none" points="29.7143,-121.5 29.7143,-142.5 139.714,-142.5 139.714,-121.5 29.7143,-121.5"/>
<polygon fill="none" stroke="black" points="29.7143,-121.5 29.7143,-142.5 139.714,-142.5 139.714,-121.5 29.7143,-121.5"/>
<text text-anchor="start" x="37.7143" y="-128.3" font-family="Times,serif" font-size="14.00">t_role_action</text>
<polygon fill="none" stroke="black" points="29.7143,-100.5 29.7143,-121.5 139.714,-121.5 139.714,-100.5 29.7143,-100.5"/>
<text text-anchor="start" x="58.2143" y="-108.3" font-family="Times,serif" font-size="14.00">id:</text>
<text text-anchor="start" x="77.2143" y="-108.3" font-family="Helvetica,sans-Serif" font-style="oblique" font-size="10.00">integer</text>
<polygon fill="none" stroke="black" points="29.7143,-79.5 29.7143,-100.5 139.714,-100.5 139.714,-79.5 29.7143,-79.5"/>
<text text-anchor="start" x="40.7143" y="-87.3" font-family="Times,serif" font-size="14.00">role_id:</text>
<text text-anchor="start" x="94.7143" y="-87.3" font-family="Helvetica,sans-Serif" font-style="oblique" font-size="10.00">integer</text>
<polygon fill="none" stroke="black" points="29.7143,-58.5 29.7143,-79.5 139.714,-79.5 139.714,-58.5 29.7143,-58.5"/>
<text text-anchor="start" x="32.7143" y="-66.3" font-family="Times,serif" font-size="14.00">action_id:</text>
<text text-anchor="start" x="102.714" y="-66.3" font-family="Helvetica,sans-Serif" font-style="oblique" font-size="10.00">integer</text>
</g>
<!-- t_role_action&#45;&gt;t_role -->
<g id="edge3" class="edge"><title>t_role_action:role_id&#45;&gt;t_role:id</title>
<path fill="none" stroke="#444444" stroke-dasharray="5,2" d="M140.714,-89.5C226.514,-89.5 247.802,-120.896 328.562,-123.348"/>
<polygon fill="#444444" stroke="#444444" points="328.663,-126.85 338.714,-123.5 328.768,-119.851 328.663,-126.85"/>
</g>
<!-- t_role_action&#45;&gt;t_action -->
<g id="edge4" class="edge"><title>t_role_action:action_id&#45;&gt;t_action:id</title>
<path fill="none" stroke="#444444" stroke-dasharray="5,2" d="M140.714,-68.5C222.982,-68.5 243.303,-37.2319 320.489,-34.6669"/>
<polygon fill="#444444" stroke="#444444" points="320.773,-38.1628 330.714,-34.5 320.658,-31.1638 320.773,-38.1628"/>
</g>
</g>
</svg>
