<?xml version="1.0" encoding="UTF-8" standalone="no"?>
<!DOCTYPE svg PUBLIC "-//W3C//DTD SVG 1.1//EN"
 "http://www.w3.org/Graphics/SVG/1.1/DTD/svg11.dtd">
<!-- Generated by graphviz version 2.38.0 (20140413.2041)
 -->
<!-- Title: Database Structure Pages: 1 -->
<svg width="769pt" height="565pt"
 viewBox="0.00 0.00 769.43 564.50" xmlns="http://www.w3.org/2000/svg" xmlns:xlink="http://www.w3.org/1999/xlink">
<g id="graph0" class="graph" transform="scale(1 1) rotate(0) translate(4 560.5)">
<title>Database Structure</title>
<polygon fill="white" stroke="none" points="-4,4 -4,-560.5 765.429,-560.5 765.429,4 -4,4"/>
<text text-anchor="middle" x="380.714" y="-541.3" font-family="Helvetica,sans-Serif" font-size="14.00">ER Diagram</text>
<!-- t_userdb -->
<g id="node1" class="node"><title>t_userdb</title>
<polygon fill="#dddddd" stroke="none" points="116.429,-109 116.429,-130 214.429,-130 214.429,-109 116.429,-109"/>
<polygon fill="none" stroke="black" points="116.429,-109 116.429,-130 214.429,-130 214.429,-109 116.429,-109"/>
<text text-anchor="start" x="133.429" y="-115.8" font-family="Times,serif" font-size="14.00">t_userdb</text>
<polygon fill="none" stroke="black" points="116.429,-88 116.429,-109 214.429,-109 214.429,-88 116.429,-88"/>
<text text-anchor="start" x="138.929" y="-95.8" font-family="Times,serif" font-size="14.00">id:</text>
<text text-anchor="start" x="157.929" y="-95.8" font-family="Helvetica,sans-Serif" font-style="oblique" font-size="10.00">integer</text>
<polygon fill="none" stroke="black" points="116.429,-67 116.429,-88 214.429,-88 214.429,-67 116.429,-67"/>
<text text-anchor="start" x="133.929" y="-74.8" font-family="Times,serif" font-size="14.00">name:</text>
<text text-anchor="start" x="177.929" y="-74.8" font-family="Helvetica,sans-Serif" font-style="oblique" font-size="10.00">text</text>
<polygon fill="none" stroke="black" points="116.429,-46 116.429,-67 214.429,-67 214.429,-46 116.429,-46"/>
<text text-anchor="start" x="131.429" y="-53.8" font-family="Times,serif" font-size="14.00">phone:</text>
<text text-anchor="start" x="180.429" y="-53.8" font-family="Helvetica,sans-Serif" font-style="oblique" font-size="10.00">text</text>
<polygon fill="none" stroke="black" points="116.429,-25 116.429,-46 214.429,-46 214.429,-25 116.429,-25"/>
<text text-anchor="start" x="133.929" y="-32.8" font-family="Times,serif" font-size="14.00">email:</text>
<text text-anchor="start" x="177.929" y="-32.8" font-family="Helvetica,sans-Serif" font-style="oblique" font-size="10.00">text</text>
<polygon fill="none" stroke="black" points="116.429,-4 116.429,-25 214.429,-25 214.429,-4 116.429,-4"/>
<text text-anchor="start" x="119.429" y="-11.8" font-family="Times,serif" font-size="14.00">password:</text>
<text text-anchor="start" x="192.429" y="-11.8" font-family="Helvetica,sans-Serif" font-style="oblique" font-size="10.00">text</text>
</g>
<!-- t_roledb -->
<g id="node2" class="node"><title>t_roledb</title>
<polygon fill="#dddddd" stroke="none" points="132.429,-198 132.429,-219 198.429,-219 198.429,-198 132.429,-198"/>
<polygon fill="none" stroke="black" points="132.429,-198 132.429,-219 198.429,-219 198.429,-198 132.429,-198"/>
<text text-anchor="start" x="135.429" y="-204.8" font-family="Times,serif" font-size="14.00">t_roledb</text>
<polygon fill="none" stroke="black" points="132.429,-177 132.429,-198 198.429,-198 198.429,-177 132.429,-177"/>
<text text-anchor="start" x="138.929" y="-184.8" font-family="Times,serif" font-size="14.00">id:</text>
<text text-anchor="start" x="157.929" y="-184.8" font-family="Helvetica,sans-Serif" font-style="oblique" font-size="10.00">integer</text>
<polygon fill="none" stroke="black" points="132.429,-156 132.429,-177 198.429,-177 198.429,-156 132.429,-156"/>
<text text-anchor="start" x="139.429" y="-163.8" font-family="Times,serif" font-size="14.00">role:</text>
<text text-anchor="start" x="172.429" y="-163.8" font-family="Helvetica,sans-Serif" font-style="oblique" font-size="10.00">text</text>
</g>
<!-- t_userroledb -->
<g id="node3" class="node"><title>t_userroledb</title>
<polygon fill="#dddddd" stroke="none" points="116.429,-419 116.429,-440 214.429,-440 214.429,-419 116.429,-419"/>
<polygon fill="none" stroke="black" points="116.429,-419 116.429,-440 214.429,-440 214.429,-419 116.429,-419"/>
<text text-anchor="start" x="119.929" y="-425.8" font-family="Times,serif" font-size="14.00">t_userroledb</text>
<polygon fill="none" stroke="black" points="116.429,-398 116.429,-419 214.429,-419 214.429,-398 116.429,-398"/>
<text text-anchor="start" x="138.929" y="-405.8" font-family="Times,serif" font-size="14.00">id:</text>
<text text-anchor="start" x="157.929" y="-405.8" font-family="Helvetica,sans-Serif" font-style="oblique" font-size="10.00">integer</text>
<polygon fill="none" stroke="black" points="116.429,-377 116.429,-398 214.429,-398 214.429,-377 116.429,-377"/>
<text text-anchor="start" x="119.429" y="-384.8" font-family="Times,serif" font-size="14.00">user_id:</text>
<text text-anchor="start" x="177.429" y="-384.8" font-family="Helvetica,sans-Serif" font-style="oblique" font-size="10.00">integer</text>
<polygon fill="none" stroke="black" points="116.429,-356 116.429,-377 214.429,-377 214.429,-356 116.429,-356"/>
<text text-anchor="start" x="121.429" y="-363.8" font-family="Times,serif" font-size="14.00">role_id:</text>
<text text-anchor="start" x="175.429" y="-363.8" font-family="Helvetica,sans-Serif" font-style="oblique" font-size="10.00">integer</text>
</g>
<!-- t_user -->
<g id="node6" class="node"><title>t_user</title>
<polygon fill="none" stroke="black" points="633.429,-369 633.429,-405 695.429,-405 695.429,-369 633.429,-369"/>
<text text-anchor="middle" x="664.429" y="-383.3" font-family="Times,serif" font-size="14.00">t_user</text>
</g>
<!-- t_userroledb&#45;&gt;t_user -->
<g id="edge1" class="edge"><title>t_userroledb:user_id&#45;&gt;t_user:id</title>
<path fill="none" stroke="#444444" stroke-dasharray="5,2" d="M215.429,-387C365.751,-387 544.383,-387 623.375,-387"/>
<polygon fill="#444444" stroke="#444444" points="623.401,-390.5 633.4,-387 623.4,-383.5 623.401,-390.5"/>
</g>
<!-- t_role -->
<g id="node7" class="node"><title>t_role</title>
<polygon fill="none" stroke="black" points="635.429,-304 635.429,-340 693.429,-340 693.429,-304 635.429,-304"/>
<text text-anchor="middle" x="664.429" y="-318.3" font-family="Times,serif" font-size="14.00">t_role</text>
</g>
<!-- t_userroledb&#45;&gt;t_role -->
<g id="edge2" class="edge"><title>t_userroledb:role_id&#45;&gt;t_role:id</title>
<path fill="none" stroke="#444444" stroke-dasharray="5,2" d="M215.429,-366C367.472,-366 547.102,-340.701 625.059,-328.47"/>
<polygon fill="#444444" stroke="#444444" points="626.042,-331.858 635.371,-326.835 624.946,-324.944 626.042,-331.858"/>
</g>
<!-- t_actiondb -->
<g id="node4" class="node"><title>t_actiondb</title>
<polygon fill="#dddddd" stroke="none" points="124.429,-508 124.429,-529 206.429,-529 206.429,-508 124.429,-508"/>
<polygon fill="none" stroke="black" points="124.429,-508 124.429,-529 206.429,-529 206.429,-508 124.429,-508"/>
<text text-anchor="start" x="127.429" y="-514.8" font-family="Times,serif" font-size="14.00">t_actiondb</text>
<polygon fill="none" stroke="black" points="124.429,-487 124.429,-508 206.429,-508 206.429,-487 124.429,-487"/>
<text text-anchor="start" x="138.929" y="-494.8" font-family="Times,serif" font-size="14.00">id:</text>
<text text-anchor="start" x="157.929" y="-494.8" font-family="Helvetica,sans-Serif" font-style="oblique" font-size="10.00">integer</text>
<polygon fill="none" stroke="black" points="124.429,-466 124.429,-487 206.429,-487 206.429,-466 124.429,-466"/>
<text text-anchor="start" x="131.429" y="-473.8" font-family="Times,serif" font-size="14.00">action:</text>
<text text-anchor="start" x="180.429" y="-473.8" font-family="Helvetica,sans-Serif" font-style="oblique" font-size="10.00">text</text>
</g>
<!-- t_roleactiondb -->
<g id="node5" class="node"><title>t_roleactiondb</title>
<polygon fill="#dddddd" stroke="none" points="110.429,-309 110.429,-330 220.429,-330 220.429,-309 110.429,-309"/>
<polygon fill="none" stroke="black" points="110.429,-309 110.429,-330 220.429,-330 220.429,-309 110.429,-309"/>
<text text-anchor="start" x="113.429" y="-315.8" font-family="Times,serif" font-size="14.00">t_roleactiondb</text>
<polygon fill="none" stroke="black" points="110.429,-288 110.429,-309 220.429,-309 220.429,-288 110.429,-288"/>
<text text-anchor="start" x="138.929" y="-295.8" font-family="Times,serif" font-size="14.00">id:</text>
<text text-anchor="start" x="157.929" y="-295.8" font-family="Helvetica,sans-Serif" font-style="oblique" font-size="10.00">integer</text>
<polygon fill="none" stroke="black" points="110.429,-267 110.429,-288 220.429,-288 220.429,-267 110.429,-267"/>
<text text-anchor="start" x="121.429" y="-274.8" font-family="Times,serif" font-size="14.00">role_id:</text>
<text text-anchor="start" x="175.429" y="-274.8" font-family="Helvetica,sans-Serif" font-style="oblique" font-size="10.00">integer</text>
<polygon fill="none" stroke="black" points="110.429,-246 110.429,-267 220.429,-267 220.429,-246 110.429,-246"/>
<text text-anchor="start" x="113.429" y="-253.8" font-family="Times,serif" font-size="14.00">action_id:</text>
<text text-anchor="start" x="183.429" y="-253.8" font-family="Helvetica,sans-Serif" font-style="oblique" font-size="10.00">integer</text>
</g>
<!-- t_roleactiondb&#45;&gt;t_role -->
<g id="edge3" class="edge"><title>t_roleactiondb:role_id&#45;&gt;t_role:id</title>
<path fill="none" stroke="#444444" stroke-dasharray="5,2" d="M221.429,-277C371.125,-277 547.824,-302.747 625.025,-315.291"/>
<polygon fill="#444444" stroke="#444444" points="624.81,-318.802 635.245,-316.969 625.944,-311.895 624.81,-318.802"/>
</g>
<!-- t_action -->
<g id="node8" class="node"><title>t_action</title>
<polygon fill="none" stroke="black" points="627.429,-238 627.429,-274 701.429,-274 701.429,-238 627.429,-238"/>
<text text-anchor="middle" x="664.429" y="-252.3" font-family="Times,serif" font-size="14.00">t_action</text>
</g>
<!-- t_roleactiondb&#45;&gt;t_action -->
<g id="edge4" class="edge"><title>t_roleactiondb:action_id&#45;&gt;t_action:id</title>
<path fill="none" stroke="#444444" stroke-dasharray="5,2" d="M221.429,-256C365.51,-256 535.952,-256 617.014,-256"/>
<polygon fill="#444444" stroke="#444444" points="617.382,-259.5 627.382,-256 617.382,-252.5 617.382,-259.5"/>
</g>
</g>
</svg>
